<?xml version="1.0" encoding="UTF-8"?>
<svg version="1.1" xmlns="http://www.w3.org/2000/svg" width="501" height="290">
<path d="M0 0 C165.33 0 330.66 0 501 0 C501 95.7 501 191.4 501 290 C335.67 290 170.34 290 0 290 C0 194.3 0 98.6 0 0 Z " fill="#FDFDFD" transform="translate(0,0)"/>
<path d="M0 0 C13.86 0 27.72 0 42 0 C42 66 42 132 42 200 C28.8 200 15.6 200 2 200 C0.28077963 198.28077963 0.88026105 196.09456229 0.87557125 193.80293941 C0.88096841 192.68413309 0.88096841 192.68413309 0.88647461 191.54272461 C0.88635407 190.74962922 0.88623354 189.95653383 0.88610935 189.13940525 C0.8868585 186.56035667 0.89448679 183.98137948 0.90234375 181.40234375 C0.90381316 179.81481969 0.90483388 178.22729515 0.90539551 176.63977051 C0.91064846 170.73900631 0.92460954 164.83825246 0.9375 158.9375 C0.958125 145.758125 0.97875 132.57875 1 119 C-27.38 119 -55.76 119 -85 119 C-85 145.73 -85 172.46 -85 200 C-98.86 200 -112.72 200 -127 200 C-127 148.19 -127 96.38 -127 43 C-113.14 43 -99.28 43 -85 43 C-85 56.86 -85 70.72 -85 85 C-56.95 84.67 -28.9 84.34 0 84 C0 56.28 0 28.56 0 0 Z " fill="#1C1C1A" transform="translate(431,64)"/>
<path d="M0 0 C2.7827657 -0.14327672 5.52451964 -0.12285344 8.31011963 -0.05029297 C9.32689285 -0.04321823 10.34366608 -0.03614349 11.39125061 -0.02885437 C14.64229572 -0.0008409 17.89162541 0.06191243 21.14215088 0.12548828 C23.34459999 0.15056207 25.54707606 0.17337683 27.74957275 0.19384766 C33.15185183 0.24900818 38.55312883 0.33270337 43.95465088 0.43798828 C42.95465088 2.43798828 41.95465088 4.43798828 40.95465088 6.43798828 C40.29465088 6.43798828 39.63465088 6.43798828 38.95465088 6.43798828 C38.55052979 7.32164063 38.55052979 7.32164063 38.13824463 8.22314453 C36.95299741 10.44108239 35.70615191 12.02130377 34.01715088 13.87548828 C30.81659238 17.45532294 27.68009571 21.08383793 24.57965088 24.75048828 C23.86700073 25.59160156 23.86700073 25.59160156 23.13995361 26.44970703 C20.23678768 29.88669204 17.39537402 33.36618628 14.57965088 36.87548828 C9.95771078 42.56147215 4.97309979 47.87483487 -0.03753662 53.21533203 C-2.88760482 56.25593159 -5.65023723 59.36147252 -8.37347412 62.51611328 C-10.40292985 64.84903903 -12.47299612 67.14310073 -14.54534912 69.43798828 C-17.79997988 73.04447101 -21.01514655 76.68095568 -24.20550537 80.34423828 C-27.77904575 84.4109424 -31.41564442 88.42144431 -35.04534912 92.43798828 C-33.46658601 96.79248523 -30.07082447 99.21655007 -26.60784912 102.06298828 C-25.33060713 103.13317193 -24.0545792 104.20480609 -22.77972412 105.27783203 C-22.1461499 105.81005371 -21.51257568 106.34227539 -20.85980225 106.890625 C-18.29919297 109.07430928 -15.83035701 111.34234877 -13.35784912 113.62548828 C-8.98197667 117.64257763 -4.45023096 121.40258783 0.17340088 125.12939453 C4.12419214 128.40877323 7.88073791 131.87806039 11.64215088 135.37158203 C13.97267779 137.55168465 13.97267779 137.55168465 16.95465088 139.43798828 C17.21588135 142.13671875 17.21588135 142.13671875 17.07183838 145.55517578 C17.03961182 146.80298828 17.00738525 148.05080078 16.97418213 149.33642578 C16.87923495 151.94875633 16.77534415 154.56078008 16.66168213 157.17236328 C16.40106208 168.25438089 18.93195182 177.65961446 25.95465088 186.43798828 C28.35071176 188.72346174 30.75285385 190.98773687 33.22418213 193.19189453 C34.95465088 195.43798828 34.95465088 195.43798828 34.71636963 198.21533203 C34.33931885 199.31554687 34.33931885 199.31554687 33.95465088 200.43798828 C26.5313127 195.13560386 19.76388828 189.13466931 12.90386963 183.13720703 C1.60557078 173.2879886 -9.77816244 163.50399344 -21.42034912 154.06298828 C-26.48981327 149.93668026 -31.42634725 145.67013111 -36.35516357 141.37817383 C-40.93064631 137.3958414 -45.53930155 133.45649625 -50.18133545 129.55200195 C-53.08274181 127.10887727 -55.96482999 124.64624476 -58.82659912 122.15673828 C-59.45751465 121.60961182 -60.08843018 121.06248535 -60.73846436 120.4987793 C-61.95451559 119.44281421 -63.16773217 118.38357282 -64.37762451 117.32055664 C-67.12265881 114.94115273 -69.66863968 112.83325453 -73.04534912 111.43798828 C-73.867771 112.19982422 -74.69019287 112.96166016 -75.53753662 113.74658203 C-81.5284453 119.29017914 -87.53367632 124.81442541 -93.61566162 130.25830078 C-95.36686093 131.82931238 -97.11078113 133.40845142 -98.85003662 134.99267578 C-99.76011475 135.82025391 -100.67019287 136.64783203 -101.60784912 137.50048828 C-102.43413818 138.25458984 -103.26042725 139.00869141 -104.11175537 139.78564453 C-106.04534912 141.43798828 -106.04534912 141.43798828 -107.04534912 141.43798828 C-108.685384 131.52323524 -110.27231585 120.29399442 -105.24780273 111.17596436 C-99.88794151 104.08284214 -93.34810814 98.16924844 -86.70690918 92.30389404 C-84.01471088 89.89901153 -81.39765393 87.41502417 -78.77386475 84.93603516 C-74.18602457 80.61371644 -69.5385731 76.36504612 -64.83601379 72.16722107 C-62.96281074 70.55019004 -62.96281074 70.55019004 -62.04534912 68.43798828 C-61.38534912 68.43798828 -60.72534912 68.43798828 -60.04534912 68.43798828 C-59.84038818 67.91333984 -59.63542725 67.38869141 -59.42425537 66.84814453 C-57.44024573 63.38034298 -54.74024702 60.74544899 -51.98284912 57.87548828 C-47.98995587 53.65464888 -44.11535688 49.41612297 -40.48284912 44.87548828 C-36.68834361 40.13409699 -32.64131789 35.70642365 -28.49090576 31.28027344 C-25.31846896 27.87671857 -22.3252631 24.38932929 -19.42034912 20.75048828 C-15.66113683 16.05147291 -11.57167346 11.86773742 -7.20941162 7.72705078 C-4.91125684 5.59077467 -4.91125684 5.59077467 -4.05731201 2.82543945 C-2.04534912 0.43798828 -2.04534912 0.43798828 0 0 Z " fill="#1A1A19" transform="translate(132.04534912109375,63.56201171875)"/>
<path d="M0 0 C7.79577164 1.10782018 13.18674295 6.52695899 17.8125 12.625 C24.94712409 23.60900266 26.69913457 35.8005436 24.33984375 48.57421875 C20.93291034 61.98072296 13.91536614 71.86872969 4.37890625 81.59033203 C3.09034819 82.90763625 1.82544552 84.24796413 0.5625 85.58984375 C-5.59128669 91.99666443 -12.33926217 97.37416139 -19.37939453 102.75097656 C-21.59804729 104.46092346 -23.76657898 106.23003111 -25.9375 108 C-29.95561769 111.22896201 -34.08228797 114.28172541 -38.25 117.3125 C-48.55062594 124.8145243 -58.63545329 132.46656258 -67.9140625 141.22265625 C-70 143 -70 143 -72.1484375 143.99609375 C-74.54543178 145.29572989 -74.87760441 146.54752144 -76 149 C-77.2644197 150.58462988 -78.55894737 152.14548362 -79.875 153.6875 C-87.42028301 163.12596311 -89.3503723 170.77913068 -88 183 C-86.47685132 188.10565656 -83.49018191 192.01122068 -80 196 C-89.97208833 193.50697792 -96.01159928 186.50739065 -101.1875 178.0625 C-106.68063647 168.04560408 -107.51384754 155.79762711 -105.0625 144.75 C-100.91874189 131.39360756 -92.7653558 120.72149941 -83 111 C-82.34515625 110.29746094 -81.6903125 109.59492188 -81.015625 108.87109375 C-75.50828928 103.04602712 -69.17758133 98.28822608 -62.83789062 93.41894531 C-61.06406957 92.04946498 -59.30310762 90.6653773 -57.546875 89.2734375 C-52.09952659 84.95634772 -46.62108801 80.70048231 -41.03271484 76.56689453 C-33.21521816 70.7812334 -25.7570995 64.69957077 -18.45556641 58.27636719 C-17.2017092 57.17687616 -15.93593623 56.0910008 -14.66796875 55.0078125 C-4.77094714 46.53580583 6.5429946 36.68937617 8.40625 23.01953125 C8.65133888 14.6354491 6.98632203 9.69148915 2 3 C1.01 1.515 1.01 1.515 0 0 Z " fill="#1B1B19" transform="translate(261,62)"/>
<path d="M0 0 C0.33 0 0.66 0 1 0 C1 42.24 1 84.48 1 128 C-11.54 128 -24.08 128 -37 128 C-37 104.57 -37 81.14 -37 57 C-70.87265696 76.54423967 -70.87265696 76.54423967 -93 109 C-93.49818831 112.9953716 -93.80565439 116.97905629 -94 121 C-94.66 121 -95.32 121 -96 121 C-102.40648097 102.75296938 -102.40648097 102.75296938 -98.125 93.0625 C-88.82835872 76.4891005 -71.23274414 66.01455988 -56.05761719 55.43457031 C-46.75558693 48.94919659 -37.62922926 42.37786066 -29 35 C-28.14664063 34.27039063 -27.29328125 33.54078125 -26.4140625 32.7890625 C-16.25991857 23.88465936 -8.77616788 14.58610959 -2 3 C-1.34 2.01 -0.68 1.02 0 0 Z " fill="#1A1A18" transform="translate(288,136)"/>
<path d="M0 0 C12.21 0 24.42 0 37 0 C37.24065286 16.07026294 37.24065286 16.07026294 37.29296875 22.97265625 C37.32870094 27.66464452 37.37075782 32.35592375 37.45263672 37.04736328 C37.51830423 40.83405901 37.55380403 44.61999351 37.56926346 48.40721512 C37.5802659 49.84485468 37.60175009 51.2824572 37.63438034 52.71976852 C37.90848213 65.30539614 34.45071888 72.74607501 25.90039062 81.85791016 C25.31451172 82.4616748 24.72863281 83.06543945 24.125 83.6875 C23.51076172 84.33251465 22.89652344 84.9775293 22.26367188 85.64208984 C18.05159092 90.02429972 13.71727228 94.16240553 9 98 C8.43667969 98.50144531 7.87335937 99.00289063 7.29296875 99.51953125 C3.35227273 103 3.35227273 103 0 103 C0 69.01 0 35.02 0 0 Z " fill="#1D1D1B" transform="translate(25,63)"/>
<path d="M0 0 C0 26.73 0 53.46 0 81 C-12.21 81 -24.42 81 -37 81 C-37.11533153 74.91562088 -37.21470427 68.83509311 -37.2746582 62.75048828 C-37.29967089 60.68460174 -37.33369236 58.61880252 -37.37719727 56.55322266 C-37.43843558 53.56911576 -37.4663426 50.58618713 -37.48828125 47.6015625 C-37.51408768 46.69072906 -37.5398941 45.77989563 -37.56648254 44.84146118 C-37.57064238 35.1466092 -33.37669105 27.831355 -26.8125 20.9375 C-26.3376416 20.43782715 -25.8627832 19.9381543 -25.37353516 19.42333984 C-6.68221515 0 -6.68221515 0 0 0 Z " fill="#1C1C1A" transform="translate(62,183)"/>
<path d="M0 0 C8.61459762 -0.18576179 17.22835211 -0.32770417 25.84446049 -0.41449738 C29.84584086 -0.4561653 33.84584644 -0.51263036 37.84643555 -0.60351562 C41.71098156 -0.69075591 45.5742098 -0.73833726 49.43966484 -0.75901794 C50.91057515 -0.77374503 52.38141716 -0.80250681 53.85176277 -0.84584045 C65.31804441 -1.17018075 65.31804441 -1.17018075 69.43429565 1.69360352 C73.91401726 6.65864448 76.60063618 11.64389108 76.4453125 18.3671875 C75.03224539 26.72163691 69.80764632 34.05729214 64 40 C63.67 40 63.34 40 63 40 C62.67 38.35 62.34 36.7 62 35 C46.49 34.67 30.98 34.34 15 34 C11.04 25.585 11.04 25.585 7 17 C4.14245265 11.36993882 4.14245265 11.36993882 1.25 5.7578125 C0 3 0 3 0 0 Z " fill="#1A1A19" transform="translate(189,64)"/>
<path d="M0 0 C19.8 0 39.6 0 60 0 C63.63 7.59 67.26 15.18 71 23 C72.32 25.64 73.64 28.28 75 31 C75 31.99 75 32.98 75 34 C55.2 34 35.4 34 15 34 C13.35 27.73 11.7 21.46 10 15 C6.73182857 9.77092572 3.90422559 5.57352141 0 1 C0 0.67 0 0.34 0 0 Z " fill="#1B1B19" transform="translate(277,64)"/>
<path d="M0 0 C0.66 0.99 1.32 1.98 2 3 C0.68 2.67 -0.64 2.34 -2 2 C-1.34 1.34 -0.68 0.68 0 0 Z M-2 3 C-1.505 6.465 -1.505 6.465 -1 10 C-0.67 9.34 -0.34 8.68 0 8 C2.86724686 8.57344937 3.8614515 8.8614515 6 11 C5.30551758 11.46784912 4.61103516 11.93569824 3.89550781 12.41772461 C1.25467324 14.19895131 -1.38423295 15.98299292 -4.02197266 17.76879883 C-5.69943139 18.90329939 -7.37898113 20.0347063 -9.05859375 21.16601562 C-35.06882764 37.50546746 -35.06882764 37.50546746 -50 63 C-50.49818831 66.9953716 -50.80565439 70.97905629 -51 75 C-51.66 75 -52.32 75 -53 75 C-59.40648097 56.75296938 -59.40648097 56.75296938 -55.125 47.0625 C-45.82289341 30.47935734 -28.15677516 19.90310117 -12.93798828 9.36035156 C-10.97750528 7.98421005 -9.05084777 6.567213 -7.12109375 5.1484375 C-4 3 -4 3 -2 3 Z " fill="#1E1E1C" transform="translate(245,182)"/>
<path d="M0 0 C0.87454834 0.00523682 1.74909668 0.01047363 2.65014648 0.01586914 C3.59438477 0.0190918 4.53862305 0.02231445 5.51147461 0.02563477 C6.50469727 0.03401367 7.49791992 0.04239258 8.52124023 0.05102539 C9.51833008 0.05553711 10.51541992 0.06004883 11.54272461 0.06469727 C14.01478872 0.07652532 16.48673541 0.0930069 18.95874023 0.11352539 C19.28874023 1.76352539 19.61874023 3.41352539 19.95874023 5.11352539 C18.63874023 5.44352539 17.31874023 5.77352539 15.95874023 6.11352539 C15.95874023 5.45352539 15.95874023 4.79352539 15.95874023 4.11352539 C11.33874023 4.11352539 6.71874023 4.11352539 1.95874023 4.11352539 C1.95874023 5.43352539 1.95874023 6.75352539 1.95874023 8.11352539 C3.07893555 8.06711914 4.19913086 8.02071289 5.35327148 7.97290039 C6.82590109 7.93538117 8.29855951 7.89898116 9.77124023 7.86352539 C10.50922852 7.83000977 11.2472168 7.79649414 12.00756836 7.76196289 C17.44868998 7.66348105 17.44868998 7.66348105 19.95092773 9.87133789 C21.59326554 13.52522122 21.2804191 16.12470747 20.95874023 20.11352539 C18.46816773 22.6040979 17.67401365 22.37010669 14.23999023 22.37915039 C13.30799805 22.38172852 12.37600586 22.38430664 11.41577148 22.38696289 C10.43995117 22.37922852 9.46413086 22.37149414 8.45874023 22.36352539 C7.48291992 22.37125977 6.50709961 22.37899414 5.50170898 22.38696289 C4.5697168 22.38438477 3.63772461 22.38180664 2.67749023 22.37915039 C1.8209082 22.37689453 0.96432617 22.37463867 0.08178711 22.37231445 C-2.04125977 22.11352539 -2.04125977 22.11352539 -4.04125977 20.11352539 C-4.04125977 18.79352539 -4.04125977 17.47352539 -4.04125977 16.11352539 C-2.72125977 16.11352539 -1.40125977 16.11352539 -0.04125977 16.11352539 C-0.04125977 16.77352539 -0.04125977 17.43352539 -0.04125977 18.11352539 C5.23874023 18.11352539 10.51874023 18.11352539 15.95874023 18.11352539 C15.95874023 16.46352539 15.95874023 14.81352539 15.95874023 13.11352539 C14.75475586 13.13672852 13.55077148 13.15993164 12.31030273 13.18383789 C10.73478809 13.20259402 9.15926675 13.22079438 7.58374023 13.23852539 C6.78967773 13.2552832 5.99561523 13.27204102 5.17749023 13.28930664 C3.10382008 13.30688012 1.02990782 13.21687707 -1.04125977 13.11352539 C-3.04125977 11.11352539 -3.04125977 11.11352539 -3.27172852 8.76586914 C-3.25754883 7.8699707 -3.24336914 6.97407227 -3.22875977 6.05102539 C-3.22231445 5.15254883 -3.21586914 4.25407227 -3.20922852 3.32836914 C-2.99144302 0.45663947 -2.87679172 0.1599938 0 0 Z " fill="#191919" transform="translate(102.041259765625,24.886474609375)"/>
<path d="M0 0 C4.96778843 1.79019403 6.47411251 5.89684248 8.84765625 10.40625 C9.33685547 11.28732422 9.82605469 12.16839844 10.33007812 13.07617188 C12.15114599 16.38834925 13.83793732 19.50209322 15.03515625 23.09375 C13.05515625 23.09375 11.07515625 23.09375 9.03515625 23.09375 C8.37515625 21.44375 7.71515625 19.79375 7.03515625 18.09375 C2.08515625 18.09375 -2.86484375 18.09375 -7.96484375 18.09375 C-8.29484375 19.74375 -8.62484375 21.39375 -8.96484375 23.09375 C-10.94484375 23.09375 -12.92484375 23.09375 -14.96484375 23.09375 C-13.20565546 18.21688914 -10.75182909 13.78515404 -8.21484375 9.28125 C-7.58835937 8.09885742 -7.58835937 8.09885742 -6.94921875 6.89257812 C-3.83880232 1.41615896 -3.83880232 1.41615896 0 0 Z " fill="#1E1E1D" transform="translate(68.96484375,23.90625)"/>
<path d="M0 0 C-4.02748053 4.83298806 -8.24379413 9.38110004 -12.7109375 13.80859375 C-13.32393707 14.42017838 -13.93693665 15.031763 -14.56851196 15.66188049 C-16.50164564 17.58947559 -18.43824987 19.51353928 -20.375 21.4375 C-21.69684699 22.75432404 -23.01846372 24.07137926 -24.33984375 25.38867188 C-27.55724299 28.59512373 -30.77775681 31.79841629 -34 35 C-36 31.125 -36 31.125 -36 30 C-36.99 29.67 -37.98 29.34 -39 29 C-38.53851563 28.59910156 -38.07703125 28.19820312 -37.6015625 27.78515625 C-36.19927138 26.56300134 -34.80126077 25.33592719 -33.40625 24.10546875 C-31.81747147 22.71528754 -30.21339887 21.34237081 -28.59375 19.98828125 C-23.01949538 15.21664874 -18.53506535 10.15159799 -14.22314453 4.25341797 C-9.93525719 -1.60487957 -6.95609103 -1.54579801 0 0 Z " fill="#F0F0EE" transform="translate(70,133)"/>
<path d="M0 0 C7.26 0 14.52 0 22 0 C22 1.32 22 2.64 22 4 C16.39 4 10.78 4 5 4 C5 5.65 5 7.3 5 9 C8.3 9 11.6 9 15 9 C15 9.99 15 10.98 15 12 C11.7 12 8.4 12 5 12 C5 13.98 5 15.96 5 18 C10.61 18 16.22 18 22 18 C22 19.32 22 20.64 22 22 C14.74 22 7.48 22 0 22 C0 14.74 0 7.48 0 0 Z " fill="#1F1F1F" transform="translate(177,25)"/>
<path d="M0 0 C3.91785635 1.30595212 4.49868051 2.95847939 6.625 6.4375 C7.23601562 7.42621094 7.84703125 8.41492188 8.4765625 9.43359375 C11.8722068 15.15394838 11.73741862 20.42766703 11 27 C8.23617856 35.38325175 3.15917037 41.80956481 -3 48 C-5 46 -5 46 -5.33203125 43.6796875 C-4.91615046 40.32328489 -3.74321233 38.78933938 -1.6875 36.125 C2.74344234 30.0526357 5.67668409 25.01180922 5.42578125 17.2734375 C4.66727695 13.22344206 2.45226821 10.23319886 0 7 C-0.598125 6.175 -1.19625 5.35 -1.8125 4.5 C-2.204375 4.005 -2.59625 3.51 -3 3 C-2.01 2.01 -1.02 1.02 0 0 Z " fill="#F4F4F2" transform="translate(259,61)"/>
<path d="M0 0 C0.33 0.66 0.66 1.32 1 2 C0.67 2.66 0.34 3.32 0 4 C0.99 4.33 1.98 4.66 3 5 C2.34 6.32 1.68 7.64 1 9 C0.01 9 -0.98 9 -2 9 C-1.67 9.66 -1.34 10.32 -1 11 C-0.01 11.33 0.98 11.66 2 12 C1.38673292 15.11456991 0.32554809 17.13420164 -1.4375 19.75 C-5.22423373 26.2618687 -5.39505441 33.64133348 -6 41 C-6.66 41 -7.32 41 -8 41 C-14.4374772 22.66468549 -14.4374772 22.66468549 -9.9375 12.875 C-7.25893515 8.01047993 -3.85287418 3.9750114 0 0 Z " fill="#1F1F1E" transform="translate(200,216)"/>
<path d="M0 0 C3.64588169 -0.02682987 7.29156846 -0.04675569 10.9375 -0.0625 C12.49887695 -0.07506836 12.49887695 -0.07506836 14.09179688 -0.08789062 C15.57583008 -0.09272461 15.57583008 -0.09272461 17.08984375 -0.09765625 C18.46450806 -0.10551147 18.46450806 -0.10551147 19.86694336 -0.11352539 C22 0 22 0 23 1 C23.07226502 2.85287502 23.0838122 4.70833878 23.0625 6.5625 C23.05347656 7.57441406 23.04445312 8.58632813 23.03515625 9.62890625 C23.02355469 10.41136719 23.01195312 11.19382812 23 12 C21.02 12.66 19.04 13.32 17 14 C17.5775 14.49371094 18.155 14.98742188 18.75 15.49609375 C19.86375 16.45708984 19.86375 16.45708984 21 17.4375 C21.7425 18.07558594 22.485 18.71367188 23.25 19.37109375 C23.8275 19.90863281 24.405 20.44617188 25 21 C25 21.33 25 21.66 25 22 C21.43478537 22.50931638 18.97914527 22.7329162 16.01171875 20.51171875 C13.65415998 18.15415998 11.49826267 15.99652535 10 13 C8.68 13 7.36 13 6 13 C6.33 12.01 6.66 11.02 7 10 C10.63 10 14.26 10 18 10 C18 7.69 18 5.38 18 3 C13.38 3 8.76 3 4 3 C4 5.31 4 7.62 4 10 C2.68 10 1.36 10 0 10 C0 6.7 0 3.4 0 0 Z " fill="#171716" transform="translate(218,25)"/>
<path d="M0 0 C7.59 0 15.18 0 23 0 C23 1.32 23 2.64 23 4 C17.06 4 11.12 4 5 4 C5 5.65 5 7.3 5 9 C8.3 9 11.6 9 15 9 C15 10.65 15 12.3 15 14 C11.7 14 8.4 14 5 14 C5 16.64 5 19.28 5 22 C3.35 22 1.7 22 0 22 C0 14.74 0 7.48 0 0 Z " fill="#484848" transform="translate(25,25)"/>
<path d="M0 0 C2.99220268 1.36370299 5.29026529 2.94908083 7.75 5.125 C8.67039062 5.93324219 8.67039062 5.93324219 9.609375 6.7578125 C10.29773438 7.37269531 10.29773438 7.37269531 11 8 C8.35261084 9.4606285 7.10551666 10 4 10 C-0.4389025 10.47611991 -2.74382446 12.07849377 -6.125 14.9375 C-8.71191568 17.10374702 -11.18957301 19.12638201 -14 21 C-14.99 20.01 -15.98 19.02 -17 18 C-18.32 19.32 -19.64 20.64 -21 22 C-21 19 -21 19 -19.6105957 17.34594727 C-18.97210693 16.75869873 -18.33361816 16.1714502 -17.67578125 15.56640625 C-16.97646484 14.91736328 -16.27714844 14.26832031 -15.55664062 13.59960938 C-14.81607422 12.92736328 -14.07550781 12.25511719 -13.3125 11.5625 C-12.59126953 10.89412109 -11.87003906 10.22574219 -11.12695312 9.53710938 C-7.52166878 6.21497978 -3.88507968 2.99618571 0 0 Z " fill="#F6F6F6" transform="translate(59,174)"/>
<path d="M0 0 C0.33 0 0.66 0 1 0 C1.33 3.3 1.66 6.6 2 10 C2.66 10 3.32 10 4 10 C4.33 7.69 4.66 5.38 5 3 C9.62 3 14.24 3 19 3 C19 5.31 19 7.62 19 10 C18.21753906 10.04898438 17.43507812 10.09796875 16.62890625 10.1484375 C15.61699219 10.22320312 14.60507813 10.29796875 13.5625 10.375 C12.55316406 10.44460937 11.54382813 10.51421875 10.50390625 10.5859375 C9.67761719 10.72257812 8.85132813 10.85921875 8 11 C7.67 11.66 7.34 12.32 7 13 C8.65 12.67 10.3 12.34 12 12 C12 12.99 12 13.98 12 15 C9.03 14.505 9.03 14.505 6 14 C6 16.64 6 19.28 6 22 C4.02 22 2.04 22 0 22 C0 14.74 0 7.48 0 0 Z " fill="#5C5C5C" transform="translate(217,25)"/>
<path d="M0 0 C8.25 0 16.5 0 25 0 C25 1.32 25 2.64 25 4 C21.7 4 18.4 4 15 4 C15 9.94 15 15.88 15 22 C13.35 22 11.7 22 10 22 C10 16.06 10 10.12 10 4 C6.7 4 3.4 4 0 4 C0 2.68 0 1.36 0 0 Z " fill="#191919" transform="translate(137,25)"/>
<path d="M0 0 C2.0625 0.75 2.0625 0.75 4 2 C4.77772405 4.33317216 5.42415568 6.61435923 6 9 C6.99 8.67 7.98 8.34 9 8 C10.09896528 9.09896528 11.19570529 10.20019582 12.28515625 11.30859375 C13.61772456 12.62294928 14.98748798 13.89963896 16.37109375 15.16015625 C17.19738281 15.93230469 18.02367187 16.70445312 18.875 17.5 C19.67679688 18.2321875 20.47859375 18.964375 21.3046875 19.71875 C23 22 23 22 22.7578125 24.78125 C22.50773437 25.5134375 22.25765625 26.245625 22 27 C16.4774881 23.05534864 11.27998552 18.78292184 6.125 14.375 C5.45847412 13.81272705 4.79194824 13.2504541 4.10522461 12.67114258 C3.47495361 12.1273999 2.84468262 11.58365723 2.1953125 11.0234375 C1.62828613 10.53794434 1.06125977 10.05245117 0.47705078 9.55224609 C-1.20308152 7.78657978 -2.15567617 6.28710617 -3 4 C-2.67 3.01 -2.34 2.02 -2 1 C-1.34 0.67 -0.68 0.34 0 0 Z " fill="#1D1D1C" transform="translate(144,237)"/>
<path d="M0 0 C0.87454834 0.00523682 1.74909668 0.01047363 2.65014648 0.01586914 C3.59438477 0.0190918 4.53862305 0.02231445 5.51147461 0.02563477 C6.50469727 0.03401367 7.49791992 0.04239258 8.52124023 0.05102539 C9.51833008 0.05553711 10.51541992 0.06004883 11.54272461 0.06469727 C14.01478872 0.07652532 16.48673541 0.0930069 18.95874023 0.11352539 C19.28874023 1.76352539 19.61874023 3.41352539 19.95874023 5.11352539 C18.63874023 5.44352539 17.31874023 5.77352539 15.95874023 6.11352539 C15.95874023 5.45352539 15.95874023 4.79352539 15.95874023 4.11352539 C11.33874023 4.11352539 6.71874023 4.11352539 1.95874023 4.11352539 C1.95874023 5.43352539 1.95874023 6.75352539 1.95874023 8.11352539 C7.23874023 8.11352539 12.51874023 8.11352539 17.95874023 8.11352539 C17.95874023 8.44352539 17.95874023 8.77352539 17.95874023 9.11352539 C12.67874023 9.11352539 7.39874023 9.11352539 1.95874023 9.11352539 C1.95874023 9.77352539 1.95874023 10.43352539 1.95874023 11.11352539 C8.88874023 11.60852539 8.88874023 11.60852539 15.95874023 12.11352539 C15.95874023 12.44352539 15.95874023 12.77352539 15.95874023 13.11352539 C13.16681819 13.16733117 10.37592614 13.20710208 7.58374023 13.23852539 C6.78967773 13.2552832 5.99561523 13.27204102 5.17749023 13.28930664 C3.10382008 13.30688012 1.02990782 13.21687707 -1.04125977 13.11352539 C-3.04125977 11.11352539 -3.04125977 11.11352539 -3.27172852 8.76586914 C-3.25754883 7.8699707 -3.24336914 6.97407227 -3.22875977 6.05102539 C-3.22231445 5.15254883 -3.21586914 4.25407227 -3.20922852 3.32836914 C-2.99144302 0.45663947 -2.87679172 0.1599938 0 0 Z " fill="#515150" transform="translate(102.041259765625,24.886474609375)"/>
<path d="M0 0 C22.11 0 44.22 0 67 0 C67 0.33 67 0.66 67 1 C48.52 1 30.04 1 11 1 C10.67 2.65 10.34 4.3 10 6 C9.0625 8.0625 9.0625 8.0625 8 10 C7.62875 10.7425 7.2575 11.485 6.875 12.25 C6.58625 12.8275 6.2975 13.405 6 14 C4.45372329 11.68058494 3.13817172 9.47020248 1.875 7 C1.52179688 6.319375 1.16859375 5.63875 0.8046875 4.9375 C0 3 0 3 0 0 Z " fill="#2D2D2C" transform="translate(189,64)"/>
<path d="M0 0 C1.66666667 1.66666667 3.33333333 3.33333333 5 5 C5.74056641 5.63808594 5.74056641 5.63808594 6.49609375 6.2890625 C8.57284005 8.65169855 9.55204613 11.16274695 10.75 14.0625 C11.19859375 15.12597656 11.6471875 16.18945312 12.109375 17.28515625 C13 20 13 20 12 22 C9.4375 22.625 9.4375 22.625 7 23 C6.76925781 22.34773438 6.53851563 21.69546875 6.30078125 21.0234375 C4.02426184 14.89729388 4.02426184 14.89729388 0.1875 9.6875 C-2 7 -2 7 -1.875 4.25 C-1 2 -1 2 0 0 Z " fill="#F1F1EF" transform="translate(277,65)"/>
<path d="M0 0 C5.96141286 0.82153746 9.75621826 3.87840008 14 8 C15.68586061 10.45125133 16.26257425 12.05029699 17 15 C16.01 16.485 16.01 16.485 15 18 C14.01 17.34 13.02 16.68 12 16 C11.01 16.33 10.02 16.66 9 17 C8.76925781 16.35933594 8.53851563 15.71867187 8.30078125 15.05859375 C6.15114315 9.35737966 3.75519412 4.7983036 0 0 Z " fill="#191917" transform="translate(261,62)"/>
<path d="M0 0 C3.29215238 -0.08066072 6.58234578 -0.14033374 9.875 -0.1875 C10.81214844 -0.21263672 11.74929687 -0.23777344 12.71484375 -0.26367188 C14.05869141 -0.27817383 14.05869141 -0.27817383 15.4296875 -0.29296875 C16.25710449 -0.3086792 17.08452148 -0.32438965 17.93701172 -0.34057617 C18.61779785 -0.22818604 19.29858398 -0.1157959 20 0 C20.66 0.99 21.32 1.98 22 3 C21.67 3.66 21.34 4.32 21 5 C20.01 4.67 19.02 4.34 18 4 C15.60745424 3.77439324 13.21071877 3.59151405 10.8125 3.4375 C9.54019531 3.35371094 8.26789063 3.26992188 6.95703125 3.18359375 C5.98121094 3.12300781 5.00539062 3.06242187 4 3 C4 5.31 4 7.62 4 10 C2.68 10 1.36 10 0 10 C0 6.7 0 3.4 0 0 Z " fill="#191919" transform="translate(218,25)"/>
<path d="M0 0 C0.66 0.33 1.32 0.66 2 1 C1.505 1.53625 1.01 2.0725 0.5 2.625 C-1.3079689 4.94208678 -1.3079689 4.94208678 -0.6875 7.875 C-1 11 -1 11 -2.76953125 12.71875 C-4.80336008 14.22898367 -6.85648966 15.6507368 -9 17 C-9.99 16.01 -10.98 15.02 -12 14 C-13.32 15.32 -14.64 16.64 -16 18 C-16 15 -16 15 -14.53125 13.2824707 C-13.8609375 12.66976318 -13.190625 12.05705566 -12.5 11.42578125 C-11.778125 10.75869141 -11.05625 10.09160156 -10.3125 9.40429688 C-9.1678125 8.36885742 -9.1678125 8.36885742 -8 7.3125 C-7.236875 6.61060547 -6.47375 5.90871094 -5.6875 5.18554688 C-3.79815382 3.44971007 -1.90223429 1.72168646 0 0 Z " fill="#ECECEB" transform="translate(54,178)"/>
<path d="M0 0 C3.22522324 2.15014883 3.73062163 3.06154377 5.1875 6.5 C5.53167969 7.2940625 5.87585938 8.088125 6.23046875 8.90625 C7 11 7 11 7 13 C4.03 13 1.06 13 -2 13 C-2.33 11.68 -2.66 10.36 -3 9 C-3.99 9.495 -3.99 9.495 -5 10 C-3.66511872 6.40608886 -2.03977277 3.24509304 0 0 Z " fill="#2D2D2D" transform="translate(66,25)"/>
<path d="M0 0 C7.26 0 14.52 0 22 0 C22 0.99 22 1.98 22 3 C16.06 3 10.12 3 4 3 C3.67 4.32 3.34 5.64 3 7 C2.01 7.66 1.02 8.32 0 9 C0 6.03 0 3.06 0 0 Z " fill="#1A1A1A" transform="translate(25,25)"/>
<path d="M0 0 C6.93 0 13.86 0 21 0 C21.33 1.65 21.66 3.3 22 5 C20.68 5.33 19.36 5.66 18 6 C18 5.01 18 4.02 18 3 C16.79601562 3.08378906 15.59203125 3.16757812 14.3515625 3.25390625 C12.77606084 3.3570641 11.20053891 3.45991266 9.625 3.5625 C8.8309375 3.61857422 8.036875 3.67464844 7.21875 3.73242188 C1.2265625 4.11328125 1.2265625 4.11328125 -1 3 C-0.67 2.01 -0.34 1.02 0 0 Z " fill="#1E1E1E" transform="translate(100,25)"/>
<path d="M0 0 C4.29 0 8.58 0 13 0 C13 1.98 13 3.96 13 6 C8.71 6 4.42 6 0 6 C0 4.02 0 2.04 0 0 Z " fill="#F2F2F1" transform="translate(223,29)"/>
<path d="M0 0 C7.26 0 14.52 0 22 0 C22 0.99 22 1.98 22 3 C16.06 3 10.12 3 4 3 C3.67 3.66 3.34 4.32 3 5 C2.01979625 6.0194119 1.02196992 7.02246356 0 8 C0 5.36 0 2.72 0 0 Z " fill="#191919" transform="translate(177,25)"/>
<path d="M0 0 C2.81256281 -0.02684312 5.62487241 -0.04676188 8.4375 -0.0625 C9.23994141 -0.07087891 10.04238281 -0.07925781 10.86914062 -0.08789062 C12.91295221 -0.0965143 14.95683902 -0.0522815 17 0 C18 1 18 1 18.0625 4.0625 C18.041875 5.031875 18.02125 6.00125 18 7 C17.01 7.33 16.02 7.66 15 8 C14.67 6.68 14.34 5.36 14 4 C9.05 3.67 4.1 3.34 -1 3 C-0.67 2.01 -0.34 1.02 0 0 Z " fill="#191919" transform="translate(104,34)"/>
<path d="M0 0 C1.51400391 0.01740234 1.51400391 0.01740234 3.05859375 0.03515625 C4.07050781 0.04417969 5.08242187 0.05320312 6.125 0.0625 C7.29869141 0.07990234 7.29869141 0.07990234 8.49609375 0.09765625 C8.49609375 0.42765625 8.49609375 0.75765625 8.49609375 1.09765625 C5.19609375 1.09765625 1.89609375 1.09765625 -1.50390625 1.09765625 C-1.50390625 7.03765625 -1.50390625 12.97765625 -1.50390625 19.09765625 C-3.15390625 19.09765625 -4.80390625 19.09765625 -6.50390625 19.09765625 C-6.50390625 14.14765625 -6.50390625 9.19765625 -6.50390625 4.09765625 C-5.84390625 4.09765625 -5.18390625 4.09765625 -4.50390625 4.09765625 C-4.17390625 7.06765625 -3.84390625 10.03765625 -3.50390625 13.09765625 C-3.51550781 12.24300781 -3.52710938 11.38835938 -3.5390625 10.5078125 C-3.55259766 8.85072266 -3.55259766 8.85072266 -3.56640625 7.16015625 C-3.57800781 6.05800781 -3.58960938 4.95585938 -3.6015625 3.8203125 C-3.46938887 0.13531158 -3.46938887 0.13531158 0 0 Z " fill="#292929" transform="translate(153.50390625,27.90234375)"/>
<path d="M0 0 C0.33 0.99 0.66 1.98 1 3 C0.01 3.33 -0.98 3.66 -2 4 C-2.433125 4.86625 -2.433125 4.86625 -2.875 5.75 C-4.37508785 8.7501757 -6.63822218 10.63822218 -9 13 C-10.29519995 15.16620544 -10.29519995 15.16620544 -11 17 C-12.98 16.34 -14.96 15.68 -17 15 C-13.41157029 11.30504919 -9.66828129 7.95241783 -5.6875 4.6875 C-5.13771484 4.23310547 -4.58792969 3.77871094 -4.02148438 3.31054688 C-2.68287784 2.20474148 -1.34170769 1.10204061 0 0 Z " fill="#252525" transform="translate(218,201)"/>
<path d="M0 0 C0.66 0.33 1.32 0.66 2 1 C2.33 1.99 2.66 2.98 3 4 C0.36 6.64 -2.28 9.28 -5 12 C-5.99 11.34 -6.98 10.68 -8 10 C-10.64632287 10.3121764 -10.64632287 10.3121764 -13 11 C-9.59986924 7.39986155 -6.1558021 4.67818358 -2 2 C-1.34 1.34 -0.68 0.68 0 0 Z " fill="#F1F1EF" transform="translate(42,191)"/>
<path d="M0 0 C0.80566406 0.00322266 1.61132812 0.00644531 2.44140625 0.00976562 C3.70404297 0.02233398 3.70404297 0.02233398 4.9921875 0.03515625 C5.84167969 0.03966797 6.69117188 0.04417969 7.56640625 0.04882812 C9.66669659 0.06062751 11.7669508 0.07856319 13.8671875 0.09765625 C13.8671875 0.42765625 13.8671875 0.75765625 13.8671875 1.09765625 C8.2571875 1.09765625 2.6471875 1.09765625 -3.1328125 1.09765625 C-3.1328125 2.74765625 -3.1328125 4.39765625 -3.1328125 6.09765625 C0.1671875 6.09765625 3.4671875 6.09765625 6.8671875 6.09765625 C6.8671875 7.08765625 6.8671875 8.07765625 6.8671875 9.09765625 C5.40895538 9.12466055 3.95058075 9.14405412 2.4921875 9.16015625 C1.68007812 9.17175781 0.86796875 9.18335938 0.03125 9.1953125 C-2.1328125 9.09765625 -2.1328125 9.09765625 -4.1328125 8.09765625 C-4.1328125 6.44765625 -4.1328125 4.79765625 -4.1328125 3.09765625 C-4.7928125 3.09765625 -5.4528125 3.09765625 -6.1328125 3.09765625 C-6.4628125 3.75765625 -6.7928125 4.41765625 -7.1328125 5.09765625 C-6.7578125 3.16015625 -6.7578125 3.16015625 -6.1328125 1.09765625 C-3.8362755 -0.05061225 -2.54968083 -0.0179555 0 0 Z M-8.1328125 5.09765625 C-7.4728125 5.75765625 -6.8128125 6.41765625 -6.1328125 7.09765625 C-6.7928125 7.09765625 -7.4528125 7.09765625 -8.1328125 7.09765625 C-8.1328125 6.43765625 -8.1328125 5.77765625 -8.1328125 5.09765625 Z " fill="#393938" transform="translate(185.1328125,27.90234375)"/>
<path d="M0 0 C1.65 0 3.3 0 5 0 C5.36351562 0.77923828 5.36351562 0.77923828 5.734375 1.57421875 C7.77136078 5.81271608 9.87828828 9.43232946 13 13 C7.32146365 11.58036591 3.46825784 8.60636039 -1 5 C-0.34 4.67 0.32 4.34 1 4 C0.67 2.68 0.34 1.36 0 0 Z " fill="#323232" transform="translate(168,245)"/>
<path d="M0 0 C1.65 0 3.3 0 5 0 C5.8466034 1.38782485 6.67675339 2.78569397 7.5 4.1875 C7.9640625 4.96480469 8.428125 5.74210937 8.90625 6.54296875 C10.10729647 9.24103386 10.20741043 11.0806982 10 14 C6.64189605 12.61043975 4.81413448 11.17473533 3 8 C2.8125 5.25 2.8125 5.25 3 3 C2.34 2.67 1.68 2.34 1 2 C0.67 1.34 0.34 0.68 0 0 Z " fill="#1F1F1E" transform="translate(67,25)"/>
<path d="M0 0 C0.99 0.66 1.98 1.32 3 2 C2.01 2 1.02 2 0 2 C0.66 2.33 1.32 2.66 2 3 C2 3.66 2 4.32 2 5 C0 7 0 7 -2 9 C-2.33 9.99 -2.66 10.98 -3 12 C-3.66 11.67 -4.32 11.34 -5 11 C-6.32860925 10.64830932 -7.66158328 10.31229724 -9 10 C-8.62669176 7.27425729 -8.20805399 6.19177915 -6.15234375 4.296875 C-5.42144531 3.78640625 -4.69054688 3.2759375 -3.9375 2.75 C-3.20402344 2.22921875 -2.47054687 1.7084375 -1.71484375 1.171875 C-1.14894531 0.78515625 -0.58304688 0.3984375 0 0 Z " fill="#212121" transform="translate(58,184)"/>
<path d="M0 0 C0.33 0 0.66 0 1 0 C1 3.3 1 6.6 1 10 C0.34 10 -0.32 10 -1 10 C-1.33 11.65 -1.66 13.3 -2 15 C-4.475 14.01 -4.475 14.01 -7 13 C-6.02325896 11.01963514 -5.04354018 9.04073867 -4.0625 7.0625 C-3.51722656 5.96035156 -2.97195313 4.85820312 -2.41015625 3.72265625 C-1 1 -1 1 0 0 Z " fill="#171715" transform="translate(288,136)"/>
<path d="M0 0 C7 9.1 7 9.1 7 12 C5.02 12 3.04 12 1 12 C0.71125 11.195625 0.4225 10.39125 0.125 9.5625 C-0.73262568 6.8673532 -0.73262568 6.8673532 -3 6 C-3.625 3.9375 -3.625 3.9375 -4 2 C-2.02 2.99 -2.02 2.99 0 4 C0 2.68 0 1.36 0 0 Z " fill="#2C2C2B" transform="translate(77,35)"/>
<path d="M0 0 C0.99 0.33 1.98 0.66 3 1 C3.02687279 2.81242052 3.04633715 4.62495233 3.0625 6.4375 C3.07410156 7.44683594 3.08570313 8.45617187 3.09765625 9.49609375 C3 12 3 12 2 13 C0.33382885 13.04063832 -1.33388095 13.042721 -3 13 C-3.33 12.01 -3.66 11.02 -4 10 C-3.34 10 -2.68 10 -2 10 C-2 8.02 -2 6.04 -2 4 C-1.34 3.67 -0.68 3.34 0 3 C-0.66 2.34 -1.32 1.68 -2 1 C-1.34 0.67 -0.68 0.34 0 0 Z " fill="#272726" transform="translate(238,25)"/>
<path d="M0 0 C4.22489602 0.53280216 6.54080716 1.87678199 9.8125 4.5625 C10.60269531 5.20316406 11.39289063 5.84382813 12.20703125 6.50390625 C12.79871094 6.99761719 13.39039063 7.49132812 14 8 C11.38058783 9.74627478 9.96175123 10.38722388 7 11 C6.01941648 9.54261898 5.04057868 8.08406325 4.0625 6.625 C3.51722656 5.81289062 2.97195313 5.00078125 2.41015625 4.1640625 C1 2 1 2 0 0 Z " fill="#2B2B29" transform="translate(261,62)"/>
<path d="M0 0 C2.31 1.98 4.62 3.96 7 6 C6.67 7.65 6.34 9.3 6 11 C4.68103535 10.07161713 3.37001311 9.13194268 2.0625 8.1875 C1.33160156 7.66542969 0.60070312 7.14335937 -0.15234375 6.60546875 C-2 5 -2 5 -3 2 C-2.34 2 -1.68 2 -1 2 C-0.67 1.34 -0.34 0.68 0 0 Z " fill="#343434" transform="translate(160,253)"/>
<path d="M0 0 C0.68707555 2.49064888 1 4.37886292 1 7 C0.34 7 -0.32 7 -1 7 C-1.66 8.65 -2.32 10.3 -3 12 C-5.97 11.505 -5.97 11.505 -9 11 C-8.60167969 10.54109375 -8.20335938 10.0821875 -7.79296875 9.609375 C-5.08857938 6.47728415 -2.42008229 3.36122541 0 0 Z " fill="#252523" transform="translate(89,111)"/>
<path d="M0 0 C0 0.99 0 1.98 0 3 C-2.97 3 -5.94 3 -9 3 C-9 5.97 -9 8.94 -9 12 C-10.65 12 -12.3 12 -14 12 C-13.505 11.278125 -13.01 10.55625 -12.5 9.8125 C-10.92080715 6.85151341 -10.71821688 5.28746971 -11 2 C-7.36576791 -0.32590854 -4.22911669 -0.16265833 0 0 Z " fill="#191919" transform="translate(39,35)"/>
<path d="M0 0 C0.33 0 0.66 0 1 0 C1.1953125 6.0546875 1.1953125 6.0546875 1 8 C-1 10 -1 10 -3.15478516 10.22705078 C-4.02409668 10.21657715 -4.8934082 10.20610352 -5.7890625 10.1953125 C-6.73007813 10.18886719 -7.67109375 10.18242188 -8.640625 10.17578125 C-9.62546875 10.15902344 -10.6103125 10.14226563 -11.625 10.125 C-12.61757812 10.11597656 -13.61015625 10.10695313 -14.6328125 10.09765625 C-17.08878134 10.07404116 -19.54427168 10.04110799 -22 10 C-22 9.67 -22 9.34 -22 9 C-15.4 9 -8.8 9 -2 9 C-2.66 8.67 -3.32 8.34 -4 8 C-4 5.69 -4 3.38 -4 1 C-3.67 2.32 -3.34 3.64 -3 5 C-2.34 4.67 -1.68 4.34 -1 4 C-0.34786708 1.97536745 -0.34786708 1.97536745 0 0 Z " fill="#414141" transform="translate(122,37)"/>
<path d="M0 0 C3.53586014 3.17320782 5.58578031 5.16743695 6 10 C1.59885603 9.49701212 -0.71195019 7.91227269 -4 5 C-3.67 4.01 -3.34 3.02 -3 2 C-3 2.66 -3 3.32 -3 4 C-1.02 4.495 -1.02 4.495 1 5 C0.01 3.68 -0.98 2.36 -2 1 C-1.34 0.67 -0.68 0.34 0 0 Z " fill="#262625" transform="translate(154,246)"/>
<path d="M0 0 C0.99 0.33 1.98 0.66 3 1 C2.67 2.32 2.34 3.64 2 5 C3.32 5.33 4.64 5.66 6 6 C6.33 5.34 6.66 4.68 7 4 C7.33 5.32 7.66 6.64 8 8 C5.6875 8.625 5.6875 8.625 3 9 C2.01 8.34 1.02 7.68 0 7 C-1.32 7 -2.64 7 -4 7 C-3.67 6.01 -3.34 5.02 -3 4 C-2.34 3.67 -1.68 3.34 -1 3 C-0.67 2.01 -0.34 1.02 0 0 Z " fill="#161615" transform="translate(219,201)"/>
<path d="M0 0 C0.66 0.99 1.32 1.98 2 3 C1.34 4.32 0.68 5.64 0 7 C1.98 8.65 3.96 10.3 6 12 C5.34 12.66 4.68 13.32 4 14 C2.02 13.01 0.04 12.02 -2 11 C-2 10.34 -2 9.68 -2 9 C-2.66 9 -3.32 9 -4 9 C-4 8.34 -4 7.68 -4 7 C-4.33 6.67 -4.66 6.34 -5 6 C-4.67 5.01 -4.34 4.02 -4 3 C-1.9375 2.3125 -1.9375 2.3125 0 2 C0 1.34 0 0.68 0 0 Z " fill="#242423" transform="translate(97,151)"/>
<path d="M0 0 C-0.54087318 3.78611227 -2.11722332 5.55400767 -5 8 C-5.66 8 -6.32 8 -7 8 C-7.33 8.99 -7.66 9.98 -8 11 C-8.99 10.34 -9.98 9.68 -11 9 C-9.55936614 4.67809842 -4.74032109 0 0 0 Z " fill="#EFEFEE" transform="translate(233,172)"/>
<path d="M0 0 C3.08236365 2.78407039 3.95206337 3.80825346 5 8 C2.03 8 -0.94 8 -4 8 C-2.68 5.36 -1.36 2.72 0 0 Z " fill="#F0F0EE" transform="translate(68,30)"/>
<path d="M0 0 C7.48291572 6.15034169 7.48291572 6.15034169 10 10 C7.69 10 5.38 10 3 10 C2.9175 9.4225 2.835 8.845 2.75 8.25 C1.79468987 5.3840696 0.21530827 4.0009236 -2 2 C-1.34 1.34 -0.68 0.68 0 0 Z " fill="#2A2A2A" transform="translate(233,37)"/>
<path d="M0 0 C-0.47302366 4.25721298 -2.81018931 6.32946082 -6 9 C-10 9 -10 9 -12 8 C-10.37982158 6.66081194 -8.75370657 5.3288031 -7.125 4 C-6.22007812 3.2575 -5.31515625 2.515 -4.3828125 1.75 C-2 0 -2 0 0 0 Z " fill="#282827" transform="translate(203,153)"/>
<path d="M0 0 C0.99 0 1.98 0 3 0 C2.39005934 3.06325753 1.42271989 5.20050634 -0.375 7.75 C-0.79523438 8.36359375 -1.21546875 8.9771875 -1.6484375 9.609375 C-2.31746094 10.29773438 -2.31746094 10.29773438 -3 11 C-3.99 11 -4.98 11 -6 11 C-6 7.45983707 -5.26641433 6.58944395 -3.1875 3.8125 C-2.66542969 3.09707031 -2.14335938 2.38164063 -1.60546875 1.64453125 C-0.81076172 0.83048828 -0.81076172 0.83048828 0 0 Z " fill="#232322" transform="translate(130,64)"/>
<path d="M0 0 C0.66 0 1.32 0 2 0 C1.67 4.62 1.34 9.24 1 14 C0.34 14 -0.32 14 -1 14 C-1.36237263 12.37681021 -1.71465157 10.7513642 -2.0625 9.125 C-2.25972656 8.22007812 -2.45695313 7.31515625 -2.66015625 6.3828125 C-3 4 -3 4 -2 2 C-1.34 2 -0.68 2 0 2 C0 1.34 0 0.68 0 0 Z " fill="#353535" transform="translate(193,243)"/>
<path d="M0 0 C-0.95336021 1.31611677 -1.91285774 2.62778961 -2.875 3.9375 C-3.40867187 4.66839844 -3.94234375 5.39929688 -4.4921875 6.15234375 C-6 8 -6 8 -8 9 C-8 6.03 -8 3.06 -8 0 C-2.25 -1.125 -2.25 -1.125 0 0 Z " fill="#242424" transform="translate(260,95)"/>
<path d="M0 0 C1.9375 0.0625 1.9375 0.0625 4 1 C5.75 3.5625 5.75 3.5625 7 6 C5.02 6.99 5.02 6.99 3 8 C1.35 6.02 -0.3 4.04 -2 2 C-1.34 1.34 -0.68 0.68 0 0 Z " fill="#222222" transform="translate(123,223)"/>
<path d="M0 0 C0.99 0.33 1.98 0.66 3 1 C3.99 0.67 4.98 0.34 6 0 C6.66 0.33 7.32 0.66 8 1 C7.67 1.598125 7.34 2.19625 7 2.8125 C5.79212012 5.05386471 5.79212012 5.05386471 6 8 C2.73539027 6.19587357 1.11070205 5.16605307 -1 2 C-0.67 1.34 -0.34 0.68 0 0 Z " fill="#282826" transform="translate(63,173)"/>
<path d="M0 0 C2.64 0 5.28 0 8 0 C8.66 1.32 9.32 2.64 10 4 C6.7 4 3.4 4 0 4 C0 2.68 0 1.36 0 0 Z " fill="#2C2C2C" transform="translate(137,25)"/>
<path d="M0 0 C0.66 0.99 1.32 1.98 2 3 C0.68 2.67 -0.64 2.34 -2 2 C-1.34 1.34 -0.68 0.68 0 0 Z M-2 3 C-1.67 4.65 -1.34 6.3 -1 8 C-1.99 8.33 -2.98 8.66 -4 9 C-4.66 8.67 -5.32 8.34 -6 8 C-6.66 8.99 -7.32 9.98 -8 11 C-8.33 9.68 -8.66 8.36 -9 7 C-4.25 3 -4.25 3 -2 3 Z " fill="#212120" transform="translate(245,182)"/>
<path d="M0 0 C0 3 0 3 -1.9375 5.8125 C-4.03963056 9.06124723 -4.63785124 11.19743801 -5 15 C-7 14 -7 14 -9 10 C-6.03 6.7 -3.06 3.4 0 0 Z " fill="#232322" transform="translate(99,100)"/>
<path d="M0 0 C3.73884332 2.65654657 5.64978174 4.58110387 7 9 C6.34 9 5.68 9 5 9 C5.33 9.99 5.66 10.98 6 12 C5.5625 14.1875 5.5625 14.1875 5 16 C3.00585364 12.53191937 1.82220715 9.64143455 1.4375 5.6875 C1.293125 4.470625 1.14875 3.25375 1 2 C0.34 1.67 -0.32 1.34 -1 1 C-0.67 0.67 -0.34 0.34 0 0 Z " fill="#222220" transform="translate(257,66)"/>
<path d="M0 0 C0.99 0.33 1.98 0.66 3 1 C2.04663979 2.31611677 1.08714226 3.62778961 0.125 4.9375 C-0.40867188 5.66839844 -0.94234375 6.39929688 -1.4921875 7.15234375 C-3 9 -3 9 -5 10 C-5.625 7.125 -5.625 7.125 -6 4 C-5.34 3.34 -4.68 2.68 -4 2 C-2.68 2 -1.36 2 0 2 C0 1.34 0 0.68 0 0 Z " fill="#2A2A2A" transform="translate(184,207)"/>
<path d="M0 0 C0.66 0.33 1.32 0.66 2 1 C2.33 1.99 2.66 2.98 3 4 C0.16569547 7.2542015 -1.68607774 8.5206753 -6 9 C-5.18914873 7.68648079 -4.37626942 6.37421332 -3.5625 5.0625 C-3.11003906 4.33160156 -2.65757813 3.60070312 -2.19140625 2.84765625 C-1 1 -1 1 0 0 Z " fill="#FAFAF8" transform="translate(42,191)"/>
<path d="M0 0 C3.73639216 1.24546405 4.18756513 2.63404953 6 6 C4.68 6 3.36 6 2 6 C1.67 6.66 1.34 7.32 1 8 C-0.32 6.35 -1.64 4.7 -3 3 C-2.01 2.01 -1.02 1.02 0 0 Z " fill="#EDEDEB" transform="translate(259,61)"/>
<path d="M0 0 C0.33 0.99 0.66 1.98 1 3 C0 5 0 5 -3 7 C-3.66 7.556875 -4.32 8.11375 -5 8.6875 C-5.66 9.120625 -6.32 9.55375 -7 10 C-7.99 9.67 -8.98 9.34 -10 9 C-6.83047153 5.73991357 -3.60062011 2.77762123 0 0 Z " fill="#292927" transform="translate(237,125)"/>
<path d="M0 0 C1.65 0 3.3 0 5 0 C5.33 1.65 5.66 3.3 6 5 C4.02 5.99 4.02 5.99 2 7 C1.01 6.01 0.02 5.02 -1 4 C-0.34 4 0.32 4 1 4 C0.67 2.68 0.34 1.36 0 0 Z " fill="#272726" transform="translate(168,245)"/>
<path d="M0 0 C0.33 0 0.66 0 1 0 C1.16803421 2.91659375 1.33447967 5.83326342 1.5 8.75 C1.54769531 9.575 1.59539063 10.4 1.64453125 11.25 C1.68964844 12.04921875 1.73476563 12.8484375 1.78125 13.671875 C1.82314453 14.4050293 1.86503906 15.13818359 1.90820312 15.89355469 C1.99683338 17.92733614 2 19.96428825 2 22 C1.34 22.33 0.68 22.66 0 23 C0 15.41 0 7.82 0 0 Z " fill="#272727" transform="translate(25,182)"/>
<path d="M0 0 C0 0.66 0 1.32 0 2 C-1.93359375 3.7265625 -1.93359375 3.7265625 -4.4375 5.625 C-5.26121094 6.25664062 -6.08492187 6.88828125 -6.93359375 7.5390625 C-9 9 -9 9 -10 9 C-10 7.35 -10 5.7 -10 4 C-8.71086513 3.32845067 -7.41859796 2.66291141 -6.125 2 C-5.40570313 1.62875 -4.68640625 1.2575 -3.9453125 0.875 C-2 0 -2 0 0 0 Z " fill="#2A2A28" transform="translate(214,184)"/>
<path d="M0 0 C2.15377564 2.62198774 3.40072174 4.64404172 4 8 C0 8 0 8 -1.75 6.5 C-2.1625 6.005 -2.575 5.51 -3 5 C-1.125 1.125 -1.125 1.125 0 0 Z " fill="#2D2D2B" transform="translate(150,238)"/>
<path d="M0 0 C1.98 0 3.96 0 6 0 C6 1.32 6 2.64 6 4 C7.32 3.67 8.64 3.34 10 3 C9.67 4.65 9.34 6.3 9 8 C7.68388323 7.04663979 6.37221039 6.08714226 5.0625 5.125 C4.33160156 4.59132812 3.60070312 4.05765625 2.84765625 3.5078125 C1 2 1 2 0 0 Z " fill="#2E2E2E" transform="translate(132,235)"/>
<path d="M0 0 C0.33 0 0.66 0 1 0 C1.125 3.375 1.125 3.375 1 7 C0.34 7.66 -0.32 8.32 -1 9 C-1.66 9 -2.32 9 -3 9 C-3.33 9.66 -3.66 10.32 -4 11 C-4.66 10.67 -5.32 10.34 -6 10 C-5.02526874 8.33073546 -4.04510211 6.66464358 -3.0625 5 C-2.24458984 3.6078125 -2.24458984 3.6078125 -1.41015625 2.1875 C-0.71212891 1.1046875 -0.71212891 1.1046875 0 0 Z " fill="#292928" transform="translate(288,136)"/>
<path d="M0 0 C1.32 1.32 2.64 2.64 4 4 C2.02 5.32 0.04 6.64 -2 8 C-2.99 7.34 -3.98 6.68 -5 6 C-3.35 4.02 -1.7 2.04 0 0 Z " fill="#222220" transform="translate(70,132)"/>
<path d="M0 0 C0.66 0.99 1.32 1.98 2 3 C1.01 3.495 1.01 3.495 0 4 C0.33 4.66 0.66 5.32 1 6 C0.34 6 -0.32 6 -1 6 C-1.33 6.66 -1.66 7.32 -2 8 C-2 7.34 -2 6.68 -2 6 C-3.32 6.33 -4.64 6.66 -6 7 C-4.60667426 3.63279613 -3.0210714 2.0140476 0 0 Z " fill="#232321" transform="translate(226,134)"/>
<path d="M0 0 C0.66 0.99 1.32 1.98 2 3 C0.35 4.98 -1.3 6.96 -3 9 C-3.144375 8.38125 -3.28875 7.7625 -3.4375 7.125 C-3.93152225 4.96741678 -3.93152225 4.96741678 -5 3 C-3 1 -3 1 0 0 Z " fill="#F2F2F1" transform="translate(118,74)"/>
<path d="M0 0 C1.32 0 2.64 0 4 0 C4 0.66 4 1.32 4 2 C5.32 2.33 6.64 2.66 8 3 C7.34 3 6.68 3 6 3 C6 3.66 6 4.32 6 5 C4.35 5 2.7 5 1 5 C0.67 3.35 0.34 1.7 0 0 Z " fill="#1F1F1F" transform="translate(98,41)"/>
<path d="M0 0 C0 3.16785869 -0.55555175 4.28103859 -2 7 C-2.33 7.99 -2.66 8.98 -3 10 C-4.32 10 -5.64 10 -7 10 C-5.6062718 5.56541027 -3.39417765 3.12621626 0 0 Z " fill="#DCDCDA" transform="translate(210,221)"/>
<path d="M0 0 C0.33 0.66 0.66 1.32 1 2 C0.67 2.66 0.34 3.32 0 4 C0.99 4.33 1.98 4.66 3 5 C3 5.66 3 6.32 3 7 C1.35 7.33 -0.3 7.66 -2 8 C-2 7.01 -2 6.02 -2 5 C-2.66 4.67 -3.32 4.34 -4 4 C-2.68 2.68 -1.36 1.36 0 0 Z " fill="#2B2B2B" transform="translate(200,216)"/>
<path d="M0 0 C1.32 1.32 2.64 2.64 4 4 C2.68 5.32 1.36 6.64 0 8 C-1.5625 6.75 -1.5625 6.75 -3 5 C-2.8125 2.875 -2.8125 2.875 -2 1 C-1.34 0.67 -0.68 0.34 0 0 Z " fill="#161616" transform="translate(203,215)"/>
<path d="M0 0 C2.19921875 0.30078125 2.19921875 0.30078125 5.88671875 1.17578125 C5.88671875 1.50578125 5.88671875 1.83578125 5.88671875 2.17578125 C4.49453125 2.33046875 4.49453125 2.33046875 3.07421875 2.48828125 C-0.14582483 3.18280045 -1.1390799 3.65319064 -3.11328125 6.17578125 C-3.44328125 5.84578125 -3.77328125 5.51578125 -4.11328125 5.17578125 C-4.44328125 5.83578125 -4.77328125 6.49578125 -5.11328125 7.17578125 C-5.77328125 6.84578125 -6.43328125 6.51578125 -7.11328125 6.17578125 C-3.25704446 0.27091867 -3.25704446 0.27091867 0 0 Z " fill="#2D2D2B" transform="translate(39.11328125,201.82421875)"/>
<path d="M0 0 C2.4375 1.1875 2.4375 1.1875 3.4375 3.1875 C0.14647992 4.09536761 -2.37369049 4.78190475 -5.5625 3.1875 C-5.2325 2.1975 -4.9025 1.2075 -4.5625 0.1875 C-2.5625 -0.8125 -2.5625 -0.8125 0 0 Z " fill="#ECECEB" transform="translate(66.5625,179.8125)"/>
<path d="M0 0 C1.65 0 3.3 0 5 0 C1.45960866 2.9156164 -2.1626772 5.50127818 -6 8 C-6.33 7.34 -6.66 6.68 -7 6 C-6.34 6 -5.68 6 -5 6 C-5 5.34 -5 4.68 -5 4 C-3.35 3.34 -1.7 2.68 0 2 C0 1.34 0 0.68 0 0 Z " fill="#2A2A28" transform="translate(228,171)"/>
<path d="M0 0 C0 1.65 0 3.3 0 5 C-3.75 7 -3.75 7 -6 7 C-2.86206897 0 -2.86206897 0 0 0 Z " fill="#ECECEC" transform="translate(118,133)"/>
<path d="M0 0 C1.32 0.66 2.64 1.32 4 2 C3.01 2.495 3.01 2.495 2 3 C2 3.66 2 4.32 2 5 C-0.76264289 5.59732819 -3.16032769 6 -6 6 C-4.02 4.02 -2.04 2.04 0 0 Z " fill="#ECECEB" transform="translate(166,77)"/>
<path d="M0 0 C0.66 0.33 1.32 0.66 2 1 C2 3.31 2 5.62 2 8 C0.68 8 -0.64 8 -2 8 C-2.125 5.125 -2.125 5.125 -2 2 C-1.34 1.34 -0.68 0.68 0 0 Z " fill="#1D1D1D" transform="translate(220,39)"/>
<path d="M0 0 C0.33 0 0.66 0 1 0 C1 1.98 1 3.96 1 6 C1.66 6 2.32 6 3 6 C3 6.99 3 7.98 3 9 C0.8125 10.75 0.8125 10.75 -2 12 C-4.8125 11.6875 -4.8125 11.6875 -7 11 C-7 10.67 -7 10.34 -7 10 C-5.02 9.67 -3.04 9.34 -1 9 C-0.67 6.03 -0.34 3.06 0 0 Z " fill="#CCCCCB" transform="translate(241,28)"/>
<path d="M0 0 C0.33 0.66 0.66 1.32 1 2 C1.99 1.67 2.98 1.34 4 1 C4 1.99 4 2.98 4 4 C5.43750191 5.68798827 5.43750191 5.68798827 7 7 C3.79604584 7 1.90600261 6.25664978 -1 5 C-0.67 3.35 -0.34 1.7 0 0 Z " fill="#141412" transform="translate(149,244)"/>
<path d="M0 0 C0.66 0.33 1.32 0.66 2 1 C2 1.66 2 2.32 2 3 C2.99 2.67 3.98 2.34 5 2 C5.66 3.65 6.32 5.3 7 7 C2.61031544 7 1.23094261 4.87194899 -2 2 C-1.34 1.34 -0.68 0.68 0 0 Z " fill="#292927" transform="translate(81,189)"/>
<path d="M0 0 C1.5625 1.25 1.5625 1.25 3 3 C2.9375 5.0625 2.9375 5.0625 2 7 C-0.0625 8.25 -0.0625 8.25 -2 9 C-1.51421457 5.87709365 -1.0013988 3.00419641 0 0 Z " fill="#21211F" transform="translate(248,151)"/>
<path d="M0 0 C1.32 0.33 2.64 0.66 4 1 C4 2.32 4 3.64 4 5 C3.401875 5.144375 2.80375 5.28875 2.1875 5.4375 C0.43849596 5.8872439 -1.28677023 6.42892341 -3 7 C-2.38722388 4.03824877 -1.74627478 2.61941217 0 0 Z " fill="#FAFAF8" transform="translate(53,142)"/>
<path d="M0 0 C0.66 0.33 1.32 0.66 2 1 C0.87970983 2.48273699 -0.24638618 3.96108886 -1.375 5.4375 C-2.00148438 6.26121094 -2.62796875 7.08492187 -3.2734375 7.93359375 C-5 10 -5 10 -7 11 C-7 10.01 -7 9.02 -7 8 C-6.34 8 -5.68 8 -5 8 C-4.731875 7.195625 -4.46375 6.39125 -4.1875 5.5625 C-3.5996875 4.2940625 -3.5996875 4.2940625 -3 3 C-2.01 2.67 -1.02 2.34 0 2 C0 1.34 0 0.68 0 0 Z " fill="#2A2A28" transform="translate(58,132)"/>
<path d="M0 0 C2.475 0.99 2.475 0.99 5 2 C0.25 6.875 0.25 6.875 -2 8 C-1.125 2.25 -1.125 2.25 0 0 Z " fill="#EFEFED" transform="translate(242,115)"/>
<path d="M0 0 C1.65 0.33 3.3 0.66 5 1 C4.67 2.32 4.34 3.64 4 5 C2.02 5 0.04 5 -2 5 C-1.34 3.35 -0.68 1.7 0 0 Z " fill="#3A3A3A" transform="translate(56,42)"/>
<path d="M0 0 C0 3 0 3 -2 6 C-2.33 6.99 -2.66 7.98 -3 9 C-4.32 8.67 -5.64 8.34 -7 8 C-6.02133662 6.85373678 -5.04205413 5.70800212 -4.0625 4.5625 C-3.51722656 3.92441406 -2.97195312 3.28632813 -2.41015625 2.62890625 C-1.63204305 1.73008851 -0.84063472 0.84063472 0 0 Z " fill="#333333" transform="translate(186,165)"/>
<path d="M0 0 C0.66 0.99 1.32 1.98 2 3 C0.37660195 4.70884005 -1.29319053 6.37446717 -3 8 C-3.66 8 -4.32 8 -5 8 C-5 7.01 -5 6.02 -5 5 C-5.66 4.67 -6.32 4.34 -7 4 C-4.525 4.495 -4.525 4.495 -2 5 C-1.34 3.35 -0.68 1.7 0 0 Z " fill="#282826" transform="translate(36,154)"/>
<path d="M0 0 C2.50298434 2.93828597 3.46930939 5.17902761 4 9 C3.01 9 2.02 9 1 9 C1 8.34 1 7.68 1 7 C0.34 6.67 -0.32 6.34 -1 6 C-0.67 5.67 -0.34 5.34 0 5 C-0.33 4.01 -0.66 3.02 -1 2 C-0.67 1.34 -0.34 0.68 0 0 Z " fill="#2C2C2B" transform="translate(348,89)"/>
<path d="M0 0 C0.66 0 1.32 0 2 0 C2 2.97 2 5.94 2 9 C0.35 9 -1.3 9 -3 9 C-2.505 8.2575 -2.01 7.515 -1.5 6.75 C0.31923475 3.93681812 0.31923475 3.93681812 0 0 Z " fill="#202020" transform="translate(28,38)"/>
<path d="M0 0 C2 3 2 3 1.625 5.1875 C1.41875 5.785625 1.2125 6.38375 1 7 C-0.98 5.68 -2.96 4.36 -5 3 C-4.360625 2.690625 -3.72125 2.38125 -3.0625 2.0625 C-1.06389179 1.1654837 -1.06389179 1.1654837 0 0 Z " fill="#E5E5E3" transform="translate(143,192)"/>
<path d="M0 0 C1.65 1.65 3.3 3.3 5 5 C3.68 6.32 2.36 7.64 1 9 C1 8.34 1 7.68 1 7 C0.34 6.67 -0.32 6.34 -1 6 C-0.835 5.38125 -0.67 4.7625 -0.5 4.125 C0.07634644 2.03936614 0.07634644 2.03936614 0 0 Z " fill="#242422" transform="translate(132,189)"/>
<path d="M0 0 C0 0.99 0 1.98 0 3 C0.66 3.33 1.32 3.66 2 4 C-1.43399845 5.14466615 -3.30785102 5 -7 5 C-2.25 0 -2.25 0 0 0 Z " fill="#272726" transform="translate(256,175)"/>
<path d="M0 0 C0.99 0.66 1.98 1.32 3 2 C-2.75 7 -2.75 7 -5 7 C-5 6.34 -5 5.68 -5 5 C-4.34 5 -3.68 5 -3 5 C-3.33 3.68 -3.66 2.36 -4 1 C-3.01 1.33 -2.02 1.66 -1 2 C-0.67 1.34 -0.34 0.68 0 0 Z " fill="#2B2B2A" transform="translate(56,173)"/>
<path d="M0 0 C-1.31224548 3.93673644 -2.91910327 6.22719294 -6 9 C-5.6875 5.625 -5.6875 5.625 -5 2 C-2 0 -2 0 0 0 Z " fill="#272727" transform="translate(279,125)"/>
<path d="M0 0 C1.43088528 2.86177057 0.59991697 4.93375773 0 8 C-1.32 8 -2.64 8 -4 8 C-2.87548273 5.0280615 -1.77706209 2.66559313 0 0 Z " fill="#282828" transform="translate(168,184)"/>
<path d="M0 0 C0.66 0.33 1.32 0.66 2 1 C1.835 1.598125 1.67 2.19625 1.5 2.8125 C0.8885876 5.11344336 0.8885876 5.11344336 1 8 C-0.32 8 -1.64 8 -3 8 C-3 3.73173127 -2.62386487 3.06117568 0 0 Z " fill="#272725" transform="translate(278,152)"/>
<path d="M0 0 C0.66 0 1.32 0 2 0 C1.67 0.66 1.34 1.32 1 2 C0.67 1.34 0.34 0.68 0 0 Z M-2 0 C-1.67 0.66 -1.34 1.32 -1 2 C-0.34 2.33 0.32 2.66 1 3 C0.34 3.66 -0.32 4.32 -1 5 C-3.0625 4.75 -3.0625 4.75 -5 4 C-5.33 3.34 -5.66 2.68 -6 2 C-4.68 1.34 -3.36 0.68 -2 0 Z " fill="#232321" transform="translate(168,241)"/>
<path d="M0 0 C1.98 0.99 1.98 0.99 4 2 C3.01 3.98 2.02 5.96 1 8 C0.67 8 0.34 8 0 8 C0 5.36 0 2.72 0 0 Z " fill="#282826" transform="translate(197,229)"/>
<path d="M0 0 C0 1.65 0 3.3 0 5 C-0.99 5.33 -1.98 5.66 -3 6 C-3.99 5.34 -4.98 4.68 -6 4 C-1.125 0 -1.125 0 0 0 Z " fill="#272725" transform="translate(47,194)"/>
<path d="M0 0 C-1.36983503 3.16115776 -1.9890638 3.9927092 -5 6 C-5.66 4.35 -6.32 2.7 -7 1 C-2.25 0 -2.25 0 0 0 Z " fill="#282827" transform="translate(265,142)"/>
<path d="M0 0 C1.98 0.495 1.98 0.495 4 1 C3.6875 2.9375 3.6875 2.9375 3 5 C2.01 5.33 1.02 5.66 0 6 C-1.125 2.25 -1.125 2.25 0 0 Z " fill="#242424" transform="translate(203,90)"/>
<path d="M0 0 C2.52588702 2.36292656 3.88820837 3.66462511 5 7 C4.01 7.33 3.02 7.66 2 8 C2 7.34 2 6.68 2 6 C1.34 6 0.68 6 0 6 C0 4.02 0 2.04 0 0 Z " fill="#292927" transform="translate(277,74)"/>
<path d="M0 0 C0 1.65 0 3.3 0 5 C-1.65 5.33 -3.3 5.66 -5 6 C-5 4.35 -5 2.7 -5 1 C-2 0 -2 0 0 0 Z " fill="#151513" transform="translate(212,212)"/>
<path d="M0 0 C0.33 0.66 0.66 1.32 1 2 C1.66 2.33 2.32 2.66 3 3 C1.68 4.32 0.36 5.64 -1 7 C-1.66 6.01 -2.32 5.02 -3 4 C-2.01 2.68 -1.02 1.36 0 0 Z " fill="#232323" transform="translate(101,145)"/>
<path d="M0 0 C0.33 0.66 0.66 1.32 1 2 C1.66 2 2.32 2 3 2 C3.33 1.34 3.66 0.68 4 0 C3.60196439 2.88575819 3.20990931 3.82189513 0.9375 5.75 C0.298125 6.1625 -0.34125 6.575 -1 7 C-1.33 6.34 -1.66 5.68 -2 5 C-1.34 5 -0.68 5 0 5 C-0.2784375 4.0409375 -0.2784375 4.0409375 -0.5625 3.0625 C-0.7790625 2.0415625 -0.7790625 2.0415625 -1 1 C-0.67 0.67 -0.34 0.34 0 0 Z " fill="#262626" transform="translate(115,129)"/>
<path d="M0 0 C0.33 0 0.66 0 1 0 C1 2.64 1 5.28 1 8 C0.01 8 -0.98 8 -2 8 C-2.6875 6.25 -2.6875 6.25 -3 4 C-1.625 1.75 -1.625 1.75 0 0 Z " fill="#292927" transform="translate(285,99)"/>
<path d="M0 0 C0 3.23861295 -0.6250851 5.09740189 -2 8 C-2.99 8.495 -2.99 8.495 -4 9 C-4.33 8.01 -4.66 7.02 -5 6 C-3.59554165 3.7363436 -1.8032087 1.9791315 0 0 Z " fill="#2E2E2E" transform="translate(112,85)"/>
<path d="M0 0 C1.32 0.66 2.64 1.32 4 2 C4 2.99 4 3.98 4 5 C2.35 5 0.7 5 -1 5 C-0.67 3.35 -0.34 1.7 0 0 Z " fill="#222222" transform="translate(148,42)"/>
<path d="M0 0 C0.66 0 1.32 0 2 0 C2 1.65 2 3.3 2 5 C2.66 5.33 3.32 5.66 4 6 C2.02 6 0.04 6 -2 6 C-1.34 4.02 -0.68 2.04 0 0 Z " fill="#171715" transform="translate(179,31)"/>
<path d="M0 0 C0.99 0.33 1.98 0.66 3 1 C3 2.32 3 3.64 3 5 C1.68 5.33 0.36 5.66 -1 6 C-0.67 4.02 -0.34 2.04 0 0 Z " fill="#272727" transform="translate(119,25)"/>
<path d="M0 0 C0.66 0.33 1.32 0.66 2 1 C0 4 0 4 -3 5 C-3.66 5.66 -4.32 6.32 -5 7 C-5.66 6.34 -6.32 5.68 -7 5 C-4.69 3.35 -2.38 1.7 0 0 Z " fill="#ECECEA" transform="translate(223,211)"/>
<path d="M0 0 C0.99 0.33 1.98 0.66 3 1 C2.34 2.65 1.68 4.3 1 6 C0.01 5.67 -0.98 5.34 -2 5 C-1.125 1.125 -1.125 1.125 0 0 Z " fill="#282827" transform="translate(51,189)"/>
<path d="M0 0 C0.66 1.32 1.32 2.64 2 4 C0.02 4.33 -1.96 4.66 -4 5 C-4 4.01 -4 3.02 -4 2 C-2.68 1.34 -1.36 0.68 0 0 Z " fill="#232321" transform="translate(77,127)"/>
<path d="M0 0 C1.9375 0.75 1.9375 0.75 4 2 C4.75 4.125 4.75 4.125 5 6 C2.5 4.6875 2.5 4.6875 0 3 C0 2.01 0 1.02 0 0 Z " fill="#2A2A2A" transform="translate(98,204)"/>
<path d="M0 0 C1.32 0 2.64 0 4 0 C4.33 0.99 4.66 1.98 5 3 C3.02 3.99 3.02 3.99 1 5 C0.34 4.01 -0.32 3.02 -1 2 C-0.67 1.34 -0.34 0.68 0 0 Z " fill="#F1F1EF" transform="translate(242,179)"/>
<path d="M0 0 C-0.99 1.485 -0.99 1.485 -2 3 C-2.66 3 -3.32 3 -4 3 C-4.33 3.66 -4.66 4.32 -5 5 C-5.66 3.35 -6.32 1.7 -7 0 C-2.25 -1.125 -2.25 -1.125 0 0 Z " fill="#131311" transform="translate(234,134)"/>
<path d="M0 0 C0 3.57575896 -1.08840607 5.05295935 -3 8 C-3.99 7.67 -4.98 7.34 -6 7 C-4.02 4.69 -2.04 2.38 0 0 Z " fill="#3A3A39" transform="translate(99,100)"/>
<path d="M0 0 C0.66 0.66 1.32 1.32 2 2 C0.35 3.65 -1.3 5.3 -3 7 C-2.625 4.0625 -2.625 4.0625 -2 1 C-1.34 0.67 -0.68 0.34 0 0 Z " fill="#343432" transform="translate(167,72)"/>
<path d="M0 0 C0.66 0 1.32 0 2 0 C2.99 2.31 3.98 4.62 5 7 C4.34 7 3.68 7 3 7 C3 6.34 3 5.68 3 5 C2.01 5 1.02 5 0 5 C0 3.35 0 1.7 0 0 Z " fill="#2E2E2E" transform="translate(337,69)"/>
<path d="M0 0 C0.66 0.33 1.32 0.66 2 1 C1.67 2.98 1.34 4.96 1 7 C0.01 7 -0.98 7 -2 7 C-1.125 2.25 -1.125 2.25 0 0 Z " fill="#E3E3E1" transform="translate(277,65)"/>
<path d="M0 0 C2.475 0.495 2.475 0.495 5 1 C5.33 2.32 5.66 3.64 6 5 C5.01 5.495 5.01 5.495 4 6 C2.68 4.02 1.36 2.04 0 0 Z " fill="#373735" transform="translate(261,62)"/>
</svg>
